<svg xmlns="http://www.w3.org/2000/svg" viewBox="0 0 124.76 55.41"><defs><style>.cls-1{fill:#b7852c;}.cls-2{fill:#cdae45;}.cls-3{font-size:13.56px;fill:#060707;font-family:Dosis-ExtraBold, Dosis;font-weight:800;}.cls-4{letter-spacing:-0.08em;}.cls-5{letter-spacing:0em;}.cls-6{letter-spacing:0em;}.cls-7{font-size:7.37px;fill:#555;font-family:Dosis-ExtraLight, Dosis;font-weight:200;letter-spacing:0.05em;}.cls-8{letter-spacing:0.07em;}</style></defs><g id="Layer_2" data-name="Layer 2"><g id="Layer_1-2" data-name="Layer 1"><path class="cls-1" d="M55.82,21.64s2.75-4.84,1.71-8.5S52.29,5.61,43.85,6.07c0,0-6.29,4.06-12.24,1.57S19.24,9.73,24,14.58s11.26,4,11.08,10.94c0,0,3.21-6.91,10.45-8.72C51.11,15.41,56,16.34,55.82,21.64Z"/><path class="cls-2" d="M43.65,4.76a58.66,58.66,0,0,0-6.48-3c-4.84-2-14.66-2.62-21.46,0a22.06,22.06,0,0,0-14,15.51s4.91-4.84,9.69-5.56c0,0-8.38,5-10.47,14,0,0,8-7.79,13-9,0,0-11.19,6.74-13.94,17.73,0,0,4.71-5,8.83-5.76,0,0,2.95,8.25.86,15,0,0,6.93-5,7.85-12.7a17.31,17.31,0,0,0,1.37,7.79c1.77,4.19-.19,9.56-.19,9.56s5-4.32,6-8.25S24.48,29.24,27.49,27a14.79,14.79,0,0,0-.59,9.81c1.57,5.37,4.51,13.09.26,18.65,0,0,10.4-5.23,9.36-14.07a46.63,46.63,0,0,1,.72-15.64s-1.11,6.22.06,11.06,2.1,10,.4,14.2c0,0,4.26-4.71,2.36-13.09s-.42-16.36,5.75-20.33a18.68,18.68,0,0,0-11.12,9.67s0-5.11-3.15-6.87-8.44-4.17-9.49-7.14S21.7,7.12,26.7,6c3.14-.68,4-2.26,7.79-2C39.07,4.37,40,6.66,43.65,4.76Z"/><text class="cls-3" transform="translate(46.5 34.3)"><tspan class="cls-4">F</tspan><tspan x="5.86" y="0">al</tspan><tspan class="cls-5" x="15.99" y="0">c</tspan><tspan x="21.92" y="0">on Mo</tspan><tspan class="cls-6" x="55.33" y="0">t</tspan><tspan x="60.2" y="0">ors</tspan></text><text class="cls-7" transform="translate(47.73 42.23)">r<tspan class="cls-8" x="2.61" y="0">ent car agency</tspan></text></g></g></svg>